<mxfile host="Electron" modified="2024-05-14T04:09:11.120Z" agent="Mozilla/5.0 (Macintosh; Intel Mac OS X 10_15_7) AppleWebKit/537.36 (KHTML, like Gecko) draw.io/24.4.0 Chrome/120.0.6099.109 Electron/28.1.0 Safari/537.36" etag="5JHtzCojSVa6uRdmbeRm" version="24.4.0" type="device">
  <diagram name="ページ1" id="aVvMI3Au1bcrZc1WGVLj">
    <mxGraphModel dx="984" dy="717" grid="1" gridSize="10" guides="1" tooltips="1" connect="1" arrows="1" fold="1" page="1" pageScale="1" pageWidth="1654" pageHeight="2336" math="0" shadow="0">
      <root>
        <mxCell id="0" />
        <mxCell id="1" parent="0" />
        <mxCell id="wrVuLVV76eJFbrBNwlJP-14" value="&lt;b&gt;S3&lt;/b&gt;&lt;br&gt;(RaiseTech-kadai5-s3)" style="sketch=0;points=[[0,0,0],[0.25,0,0],[0.5,0,0],[0.75,0,0],[1,0,0],[0,1,0],[0.25,1,0],[0.5,1,0],[0.75,1,0],[1,1,0],[0,0.25,0],[0,0.5,0],[0,0.75,0],[1,0.25,0],[1,0.5,0],[1,0.75,0]];outlineConnect=0;fontColor=#232F3E;fillColor=#7AA116;strokeColor=#ffffff;dashed=0;verticalLabelPosition=bottom;verticalAlign=top;align=center;html=1;fontSize=12;fontStyle=0;aspect=fixed;shape=mxgraph.aws4.resourceIcon;resIcon=mxgraph.aws4.s3;" parent="1" vertex="1">
          <mxGeometry x="300" y="665" width="78" height="78" as="geometry" />
        </mxCell>
        <mxCell id="wrVuLVV76eJFbrBNwlJP-15" value="" style="outlineConnect=0;dashed=0;verticalLabelPosition=bottom;verticalAlign=top;align=center;html=1;shape=mxgraph.aws3.application_load_balancer;fillColor=#F58534;gradientColor=none;container=0;" parent="1" vertex="1">
          <mxGeometry x="1005" y="880" width="69" height="72" as="geometry" />
        </mxCell>
        <mxCell id="JP5ZXMJ7knnwvwXOP-VK-1" value="&lt;b&gt;Availability Zone&lt;/b&gt;&lt;div&gt;(ap-northeast-1a)&lt;/div&gt;" style="fillColor=none;strokeColor=#147EBA;dashed=1;verticalAlign=top;fontStyle=0;fontColor=#147EBA;whiteSpace=wrap;html=1;container=0;" parent="1" vertex="1">
          <mxGeometry x="445" y="570" width="300" height="420" as="geometry" />
        </mxCell>
        <mxCell id="JP5ZXMJ7knnwvwXOP-VK-21" style="edgeStyle=orthogonalEdgeStyle;rounded=0;orthogonalLoop=1;jettySize=auto;html=1;exitX=0.5;exitY=1;exitDx=0;exitDy=0;" parent="1" source="JP5ZXMJ7knnwvwXOP-VK-1" target="JP5ZXMJ7knnwvwXOP-VK-1" edge="1">
          <mxGeometry relative="1" as="geometry" />
        </mxCell>
        <mxCell id="JP5ZXMJ7knnwvwXOP-VK-3" value="&lt;b&gt;Public subnet&lt;/b&gt;&lt;div&gt;(10.0.0.0/20)&lt;br&gt;&lt;/div&gt;" style="points=[[0,0],[0.25,0],[0.5,0],[0.75,0],[1,0],[1,0.25],[1,0.5],[1,0.75],[1,1],[0.75,1],[0.5,1],[0.25,1],[0,1],[0,0.75],[0,0.5],[0,0.25]];outlineConnect=0;gradientColor=none;html=1;whiteSpace=wrap;fontSize=12;fontStyle=0;container=0;pointerEvents=0;collapsible=0;recursiveResize=0;shape=mxgraph.aws4.group;grIcon=mxgraph.aws4.group_security_group;grStroke=0;strokeColor=#7AA116;fillColor=#F2F6E8;verticalAlign=top;align=left;spacingLeft=30;fontColor=#248814;dashed=0;" parent="1" vertex="1">
          <mxGeometry x="500" y="620" width="190" height="160" as="geometry" />
        </mxCell>
        <mxCell id="JP5ZXMJ7knnwvwXOP-VK-6" value="&lt;b&gt;EC2&lt;/b&gt;&lt;br&gt;(RaiseTech-kadai5-ec2)" style="sketch=0;points=[[0,0,0],[0.25,0,0],[0.5,0,0],[0.75,0,0],[1,0,0],[0,1,0],[0.25,1,0],[0.5,1,0],[0.75,1,0],[1,1,0],[0,0.25,0],[0,0.5,0],[0,0.75,0],[1,0.25,0],[1,0.5,0],[1,0.75,0]];outlineConnect=0;fontColor=#232F3E;fillColor=#ED7100;strokeColor=#ffffff;dashed=0;verticalLabelPosition=bottom;verticalAlign=top;align=center;html=1;fontSize=12;fontStyle=0;aspect=fixed;shape=mxgraph.aws4.resourceIcon;resIcon=mxgraph.aws4.ec2;container=0;" parent="1" vertex="1">
          <mxGeometry x="560" y="665" width="70" height="70" as="geometry" />
        </mxCell>
        <mxCell id="JP5ZXMJ7knnwvwXOP-VK-5" value="&lt;b&gt;Private subnet&lt;/b&gt;&lt;div&gt;(&lt;span style=&quot;background-color: initial;&quot;&gt;10.0.128.0/20&lt;/span&gt;&lt;span style=&quot;background-color: initial;&quot;&gt;)&lt;/span&gt;&lt;/div&gt;" style="points=[[0,0],[0.25,0],[0.5,0],[0.75,0],[1,0],[1,0.25],[1,0.5],[1,0.75],[1,1],[0.75,1],[0.5,1],[0.25,1],[0,1],[0,0.75],[0,0.5],[0,0.25]];outlineConnect=0;gradientColor=none;html=1;whiteSpace=wrap;fontSize=12;fontStyle=0;container=0;pointerEvents=0;collapsible=0;recursiveResize=0;shape=mxgraph.aws4.group;grIcon=mxgraph.aws4.group_security_group;grStroke=0;strokeColor=#00A4A6;fillColor=#E6F6F7;verticalAlign=top;align=left;spacingLeft=30;fontColor=#147EBA;dashed=0;" parent="1" vertex="1">
          <mxGeometry x="500" y="810" width="190" height="160" as="geometry" />
        </mxCell>
        <mxCell id="wrVuLVV76eJFbrBNwlJP-1" value="&lt;div&gt;&lt;b&gt;RDS&lt;/b&gt;&lt;/div&gt;&lt;div&gt;(RaiseTech-kadai5-rds)&lt;/div&gt;" style="sketch=0;points=[[0,0,0],[0.25,0,0],[0.5,0,0],[0.75,0,0],[1,0,0],[0,1,0],[0.25,1,0],[0.5,1,0],[0.75,1,0],[1,1,0],[0,0.25,0],[0,0.5,0],[0,0.75,0],[1,0.25,0],[1,0.5,0],[1,0.75,0]];outlineConnect=0;fontColor=#232F3E;fillColor=#C925D1;strokeColor=#ffffff;dashed=0;verticalLabelPosition=bottom;verticalAlign=top;align=center;html=1;fontSize=12;fontStyle=0;aspect=fixed;shape=mxgraph.aws4.resourceIcon;resIcon=mxgraph.aws4.rds;container=0;" parent="1" vertex="1">
          <mxGeometry x="555" y="850" width="80" height="80" as="geometry" />
        </mxCell>
        <mxCell id="wrVuLVV76eJFbrBNwlJP-5" value="&lt;b&gt;Availability Zone&lt;/b&gt;&lt;div&gt;(ap-northeast-1c)&lt;/div&gt;" style="fillColor=none;strokeColor=#147EBA;dashed=1;verticalAlign=top;fontStyle=0;fontColor=#147EBA;whiteSpace=wrap;html=1;container=0;" parent="1" vertex="1">
          <mxGeometry x="882" y="570" width="300" height="420" as="geometry" />
        </mxCell>
        <mxCell id="wrVuLVV76eJFbrBNwlJP-6" style="edgeStyle=orthogonalEdgeStyle;rounded=0;orthogonalLoop=1;jettySize=auto;html=1;exitX=0.5;exitY=1;exitDx=0;exitDy=0;" parent="1" source="wrVuLVV76eJFbrBNwlJP-5" target="wrVuLVV76eJFbrBNwlJP-5" edge="1">
          <mxGeometry relative="1" as="geometry" />
        </mxCell>
        <mxCell id="wrVuLVV76eJFbrBNwlJP-7" value="&lt;b&gt;Public subnet&lt;/b&gt;&lt;div&gt;(10.0.16.0/20)&lt;br&gt;&lt;/div&gt;" style="points=[[0,0],[0.25,0],[0.5,0],[0.75,0],[1,0],[1,0.25],[1,0.5],[1,0.75],[1,1],[0.75,1],[0.5,1],[0.25,1],[0,1],[0,0.75],[0,0.5],[0,0.25]];outlineConnect=0;gradientColor=none;html=1;whiteSpace=wrap;fontSize=12;fontStyle=0;container=0;pointerEvents=0;collapsible=0;recursiveResize=0;shape=mxgraph.aws4.group;grIcon=mxgraph.aws4.group_security_group;grStroke=0;strokeColor=#7AA116;fillColor=#F2F6E8;verticalAlign=top;align=left;spacingLeft=30;fontColor=#248814;dashed=0;" parent="1" vertex="1">
          <mxGeometry x="940" y="620" width="190" height="160" as="geometry" />
        </mxCell>
        <mxCell id="wrVuLVV76eJFbrBNwlJP-9" value="&lt;b&gt;Private subnet&lt;/b&gt;&lt;div&gt;(&lt;span style=&quot;background-color: initial;&quot;&gt;10.0.144.0/20&lt;/span&gt;&lt;span style=&quot;background-color: initial;&quot;&gt;)&lt;/span&gt;&lt;/div&gt;" style="points=[[0,0],[0.25,0],[0.5,0],[0.75,0],[1,0],[1,0.25],[1,0.5],[1,0.75],[1,1],[0.75,1],[0.5,1],[0.25,1],[0,1],[0,0.75],[0,0.5],[0,0.25]];outlineConnect=0;gradientColor=none;html=1;whiteSpace=wrap;fontSize=12;fontStyle=0;container=0;pointerEvents=0;collapsible=0;recursiveResize=0;shape=mxgraph.aws4.group;grIcon=mxgraph.aws4.group_security_group;grStroke=0;strokeColor=#00A4A6;fillColor=#E6F6F7;verticalAlign=top;align=left;spacingLeft=30;fontColor=#147EBA;dashed=0;" parent="1" vertex="1">
          <mxGeometry x="940" y="810" width="190" height="160" as="geometry" />
        </mxCell>
        <mxCell id="wrVuLVV76eJFbrBNwlJP-19" value="&lt;b&gt;VPC&lt;/b&gt;&lt;div&gt;(10.0.0.0/16)&lt;/div&gt;" style="points=[[0,0],[0.25,0],[0.5,0],[0.75,0],[1,0],[1,0.25],[1,0.5],[1,0.75],[1,1],[0.75,1],[0.5,1],[0.25,1],[0,1],[0,0.75],[0,0.5],[0,0.25]];outlineConnect=0;gradientColor=none;html=1;whiteSpace=wrap;fontSize=12;fontStyle=0;container=1;pointerEvents=0;collapsible=0;recursiveResize=0;shape=mxgraph.aws4.group;grIcon=mxgraph.aws4.group_vpc2;strokeColor=#8C4FFF;fillColor=none;verticalAlign=top;align=left;spacingLeft=30;fontColor=#AAB7B8;dashed=0;" parent="1" vertex="1">
          <mxGeometry x="415" y="520" width="795" height="500" as="geometry" />
        </mxCell>
        <mxCell id="wrVuLVV76eJFbrBNwlJP-21" value="&lt;b&gt;IGW&lt;/b&gt;" style="sketch=0;outlineConnect=0;fontColor=#232F3E;gradientColor=none;fillColor=#8C4FFF;strokeColor=none;dashed=0;verticalLabelPosition=bottom;verticalAlign=top;align=center;html=1;fontSize=12;fontStyle=0;aspect=fixed;pointerEvents=1;shape=mxgraph.aws4.internet_gateway;" parent="1" vertex="1">
          <mxGeometry x="775.5" y="480" width="78" height="78" as="geometry" />
        </mxCell>
        <mxCell id="wrVuLVV76eJFbrBNwlJP-22" value="&lt;b&gt;Region&lt;/b&gt;&lt;div&gt;(ap-northeast-1(Tokyo))&lt;br&gt;&lt;/div&gt;" style="points=[[0,0],[0.25,0],[0.5,0],[0.75,0],[1,0],[1,0.25],[1,0.5],[1,0.75],[1,1],[0.75,1],[0.5,1],[0.25,1],[0,1],[0,0.75],[0,0.5],[0,0.25]];outlineConnect=0;gradientColor=none;html=1;whiteSpace=wrap;fontSize=12;fontStyle=0;container=1;pointerEvents=0;collapsible=0;recursiveResize=0;shape=mxgraph.aws4.group;grIcon=mxgraph.aws4.group_region;strokeColor=#00A4A6;fillColor=none;verticalAlign=top;align=left;spacingLeft=30;fontColor=#147EBA;dashed=1;" parent="1" vertex="1">
          <mxGeometry x="260" y="450" width="1060" height="630" as="geometry" />
        </mxCell>
        <mxCell id="wrVuLVV76eJFbrBNwlJP-23" value="AWS Cloud" style="points=[[0,0],[0.25,0],[0.5,0],[0.75,0],[1,0],[1,0.25],[1,0.5],[1,0.75],[1,1],[0.75,1],[0.5,1],[0.25,1],[0,1],[0,0.75],[0,0.5],[0,0.25]];outlineConnect=0;gradientColor=none;html=1;whiteSpace=wrap;fontSize=12;fontStyle=0;container=1;pointerEvents=0;collapsible=0;recursiveResize=0;shape=mxgraph.aws4.group;grIcon=mxgraph.aws4.group_aws_cloud_alt;strokeColor=#232F3E;fillColor=none;verticalAlign=top;align=left;spacingLeft=30;fontColor=#232F3E;dashed=0;" parent="1" vertex="1">
          <mxGeometry x="220" y="400" width="1140" height="720" as="geometry" />
        </mxCell>
        <mxCell id="1xcVCdkbEKs1dlK16Vn3-1" value="&lt;b&gt;ALB&lt;/b&gt;&lt;div&gt;(RaiseTech-kadai5-alb)&lt;/div&gt;" style="sketch=0;points=[[0,0,0],[0.25,0,0],[0.5,0,0],[0.75,0,0],[1,0,0],[0,1,0],[0.25,1,0],[0.5,1,0],[0.75,1,0],[1,1,0],[0,0.25,0],[0,0.5,0],[0,0.75,0],[1,0.25,0],[1,0.5,0],[1,0.75,0]];outlineConnect=0;fontColor=#232F3E;fillColor=#8C4FFF;strokeColor=#ffffff;dashed=0;verticalLabelPosition=bottom;verticalAlign=top;align=center;html=1;fontSize=12;fontStyle=0;aspect=fixed;shape=mxgraph.aws4.resourceIcon;resIcon=mxgraph.aws4.elastic_load_balancing;" vertex="1" parent="wrVuLVV76eJFbrBNwlJP-23">
          <mxGeometry x="560" y="220" width="78" height="78" as="geometry" />
        </mxCell>
        <mxCell id="wrVuLVV76eJFbrBNwlJP-25" value="" style="endArrow=classic;startArrow=classic;html=1;rounded=0;exitX=1;exitY=0.5;exitDx=0;exitDy=0;exitPerimeter=0;entryX=1;entryY=0.5;entryDx=0;entryDy=0;entryPerimeter=0;" parent="1" source="wrVuLVV76eJFbrBNwlJP-1" target="JP5ZXMJ7knnwvwXOP-VK-6" edge="1">
          <mxGeometry width="50" height="50" relative="1" as="geometry">
            <mxPoint x="650" y="725" as="sourcePoint" />
            <mxPoint x="700" y="675" as="targetPoint" />
            <Array as="points">
              <mxPoint x="700" y="890" />
              <mxPoint x="700" y="790" />
              <mxPoint x="700" y="700" />
            </Array>
          </mxGeometry>
        </mxCell>
        <mxCell id="wrVuLVV76eJFbrBNwlJP-26" value="" style="endArrow=classic;startArrow=classic;html=1;rounded=0;entryX=0;entryY=0.5;entryDx=0;entryDy=0;entryPerimeter=0;exitX=1;exitY=0.5;exitDx=0;exitDy=0;exitPerimeter=0;" parent="1" source="JP5ZXMJ7knnwvwXOP-VK-6" edge="1">
          <mxGeometry width="50" height="50" relative="1" as="geometry">
            <mxPoint x="670" y="681" as="sourcePoint" />
            <mxPoint x="780" y="656" as="targetPoint" />
          </mxGeometry>
        </mxCell>
        <mxCell id="wrVuLVV76eJFbrBNwlJP-27" value="" style="endArrow=classic;startArrow=classic;html=1;rounded=0;exitX=1;exitY=0.5;exitDx=0;exitDy=0;exitPerimeter=0;" parent="1" source="wrVuLVV76eJFbrBNwlJP-14" target="JP5ZXMJ7knnwvwXOP-VK-6" edge="1">
          <mxGeometry width="50" height="50" relative="1" as="geometry">
            <mxPoint x="395" y="729" as="sourcePoint" />
            <mxPoint x="445" y="679" as="targetPoint" />
          </mxGeometry>
        </mxCell>
        <mxCell id="wrVuLVV76eJFbrBNwlJP-29" value="" style="endArrow=classic;startArrow=classic;html=1;rounded=0;exitX=0.5;exitY=0;exitDx=0;exitDy=0;exitPerimeter=0;" parent="1" edge="1">
          <mxGeometry width="50" height="50" relative="1" as="geometry">
            <mxPoint x="814.5" y="620" as="sourcePoint" />
            <mxPoint x="814" y="580" as="targetPoint" />
          </mxGeometry>
        </mxCell>
        <mxCell id="wrVuLVV76eJFbrBNwlJP-30" value="" style="endArrow=classic;startArrow=classic;html=1;rounded=0;" parent="1" source="wrVuLVV76eJFbrBNwlJP-21" edge="1">
          <mxGeometry width="50" height="50" relative="1" as="geometry">
            <mxPoint x="803.5" y="410" as="sourcePoint" />
            <mxPoint x="815" y="370" as="targetPoint" />
          </mxGeometry>
        </mxCell>
        <mxCell id="1xcVCdkbEKs1dlK16Vn3-2" value="&lt;b&gt;Internet&lt;/b&gt;" style="outlineConnect=0;dashed=0;verticalLabelPosition=bottom;verticalAlign=top;align=center;html=1;shape=mxgraph.aws3.internet_3;fillColor=#D2D3D3;gradientColor=none;" vertex="1" parent="1">
          <mxGeometry x="774.75" y="296" width="79.5" height="54" as="geometry" />
        </mxCell>
      </root>
    </mxGraphModel>
  </diagram>
</mxfile>
